<svg width="80" height="16" viewBox="0 0 80 16" fill="none"
	xmlns="http://www.w3.org/2000/svg">
	<path d="M7.52181 2.30217C7.67547 1.99088 7.75229 1.83523 7.85659 1.7855C7.94734 1.74224 8.05277 1.74224 8.14351 1.7855C8.24781 1.83523 8.32464 1.99088 8.4783 2.30217L9.93608 5.25548C9.98144 5.34738 10.0041 5.39333 10.0373 5.42901C10.0666 5.4606 10.1018 5.48619 10.1409 5.50437C10.1851 5.52491 10.2358 5.53232 10.3372 5.54714L13.598 6.02376C13.9414 6.07395 14.1131 6.09905 14.1926 6.18292C14.2617 6.25589 14.2942 6.35616 14.281 6.45581C14.2659 6.57034 14.1416 6.69141 13.893 6.93355L11.5343 9.23091C11.4608 9.30252 11.424 9.33833 11.4003 9.38093C11.3793 9.41866 11.3658 9.4601 11.3607 9.50296C11.3548 9.55137 11.3635 9.60196 11.3808 9.70312L11.9373 12.948C11.996 13.2903 12.0254 13.4614 11.9702 13.563C11.9222 13.6513 11.8369 13.7133 11.7381 13.7316C11.6245 13.7527 11.4708 13.6719 11.1634 13.5102L8.24829 11.9772C8.15746 11.9294 8.11205 11.9055 8.0642 11.8961C8.02184 11.8878 7.97827 11.8878 7.9359 11.8961C7.88806 11.9055 7.84264 11.9294 7.75181 11.9772L4.83666 13.5102C4.52932 13.6719 4.37565 13.7527 4.26202 13.7316C4.16316 13.7133 4.07786 13.6513 4.02987 13.563C3.97471 13.4614 4.00406 13.2903 4.06276 12.948L4.6193 9.70312C4.63665 9.60196 4.64532 9.55137 4.63945 9.50296C4.63426 9.4601 4.62078 9.41866 4.59978 9.38093C4.57606 9.33833 4.53929 9.30252 4.46576 9.2309L2.10708 6.93355C1.85848 6.69141 1.73418 6.57034 1.71906 6.45581C1.7059 6.35616 1.73841 6.25589 1.80754 6.18292C1.887 6.09905 2.05869 6.07395 2.40207 6.02376L5.66291 5.54714C5.76432 5.53232 5.81503 5.52491 5.85919 5.50437C5.89828 5.48619 5.93348 5.4606 5.96283 5.42901C5.99598 5.39333 6.01866 5.34738 6.06402 5.25548L7.52181 2.30217Z" fill="#FBAD38" />
	<path d="M23.5218 2.30217C23.6755 1.99088 23.7523 1.83523 23.8566 1.7855C23.9473 1.74224 24.0528 1.74224 24.1435 1.7855C24.2478 1.83523 24.3246 1.99088 24.4783 2.30217L25.9361 5.25548C25.9814 5.34738 26.0041 5.39333 26.0373 5.42901C26.0666 5.4606 26.1018 5.48619 26.1409 5.50437C26.1851 5.52491 26.2358 5.53232 26.3372 5.54714L29.598 6.02376C29.9414 6.07395 30.1131 6.09905 30.1926 6.18292C30.2617 6.25589 30.2942 6.35616 30.281 6.45581C30.2659 6.57034 30.1416 6.69141 29.893 6.93355L27.5343 9.23091C27.4608 9.30252 27.424 9.33833 27.4003 9.38093C27.3793 9.41866 27.3658 9.4601 27.3607 9.50296C27.3548 9.55137 27.3635 9.60196 27.3808 9.70312L27.9373 12.948C27.996 13.2903 28.0254 13.4614 27.9702 13.563C27.9222 13.6513 27.8369 13.7133 27.7381 13.7316C27.6245 13.7527 27.4708 13.6719 27.1634 13.5102L24.2483 11.9772C24.1575 11.9294 24.112 11.9055 24.0642 11.8961C24.0218 11.8878 23.9783 11.8878 23.9359 11.8961C23.8881 11.9055 23.8426 11.9294 23.7518 11.9772L20.8367 13.5102C20.5293 13.6719 20.3756 13.7527 20.262 13.7316C20.1632 13.7133 20.0779 13.6513 20.0299 13.563C19.9747 13.4614 20.0041 13.2903 20.0628 12.948L20.6193 9.70312C20.6366 9.60196 20.6453 9.55137 20.6395 9.50296C20.6343 9.4601 20.6208 9.41866 20.5998 9.38093C20.5761 9.33833 20.5393 9.30252 20.4658 9.2309L18.1071 6.93355C17.8585 6.69141 17.7342 6.57034 17.7191 6.45581C17.7059 6.35616 17.7384 6.25589 17.8075 6.18292C17.887 6.09905 18.0587 6.07395 18.4021 6.02376L21.6629 5.54714C21.7643 5.53232 21.815 5.52491 21.8592 5.50437C21.8983 5.48619 21.9335 5.4606 21.9628 5.42901C21.996 5.39333 22.0187 5.34738 22.064 5.25548L23.5218 2.30217Z" fill="#FBAD38" />
	<path d="M39.5218 2.30217C39.6755 1.99088 39.7523 1.83523 39.8566 1.7855C39.9473 1.74224 40.0528 1.74224 40.1435 1.7855C40.2478 1.83523 40.3246 1.99088 40.4783 2.30217L41.9361 5.25548C41.9814 5.34738 42.0041 5.39333 42.0373 5.42901C42.0666 5.4606 42.1018 5.48619 42.1409 5.50437C42.1851 5.52491 42.2358 5.53232 42.3372 5.54714L45.598 6.02376C45.9414 6.07395 46.1131 6.09905 46.1926 6.18292C46.2617 6.25589 46.2942 6.35616 46.281 6.45581C46.2659 6.57034 46.1416 6.69141 45.893 6.93355L43.5343 9.23091C43.4608 9.30252 43.424 9.33833 43.4003 9.38093C43.3793 9.41866 43.3658 9.4601 43.3607 9.50296C43.3548 9.55137 43.3635 9.60196 43.3808 9.70312L43.9373 12.948C43.996 13.2903 44.0254 13.4614 43.9702 13.563C43.9222 13.6513 43.8369 13.7133 43.7381 13.7316C43.6245 13.7527 43.4708 13.6719 43.1634 13.5102L40.2483 11.9772C40.1575 11.9294 40.112 11.9055 40.0642 11.8961C40.0218 11.8878 39.9783 11.8878 39.9359 11.8961C39.8881 11.9055 39.8426 11.9294 39.7518 11.9772L36.8367 13.5102C36.5293 13.6719 36.3756 13.7527 36.262 13.7316C36.1632 13.7133 36.0779 13.6513 36.0299 13.563C35.9747 13.4614 36.0041 13.2903 36.0628 12.948L36.6193 9.70312C36.6366 9.60196 36.6453 9.55137 36.6395 9.50296C36.6343 9.4601 36.6208 9.41866 36.5998 9.38093C36.5761 9.33833 36.5393 9.30252 36.4658 9.2309L34.1071 6.93355C33.8585 6.69141 33.7342 6.57034 33.7191 6.45581C33.7059 6.35616 33.7384 6.25589 33.8075 6.18292C33.887 6.09905 34.0587 6.07395 34.4021 6.02376L37.6629 5.54714C37.7643 5.53232 37.815 5.52491 37.8592 5.50437C37.8983 5.48619 37.9335 5.4606 37.9628 5.42901C37.996 5.39333 38.0187 5.34738 38.064 5.25548L39.5218 2.30217Z" fill="#FBAD38" />
	<path d="M55.5218 2.30217C55.6755 1.99088 55.7523 1.83523 55.8566 1.7855C55.9473 1.74224 56.0528 1.74224 56.1435 1.7855C56.2478 1.83523 56.3246 1.99088 56.4783 2.30217L57.9361 5.25548C57.9814 5.34738 58.0041 5.39333 58.0373 5.42901C58.0666 5.4606 58.1018 5.48619 58.1409 5.50437C58.1851 5.52491 58.2358 5.53232 58.3372 5.54714L61.598 6.02376C61.9414 6.07395 62.1131 6.09905 62.1926 6.18292C62.2617 6.25589 62.2942 6.35616 62.281 6.45581C62.2659 6.57034 62.1416 6.69141 61.893 6.93355L59.5343 9.23091C59.4608 9.30252 59.424 9.33833 59.4003 9.38093C59.3793 9.41866 59.3658 9.4601 59.3607 9.50296C59.3548 9.55137 59.3635 9.60196 59.3808 9.70312L59.9373 12.948C59.996 13.2903 60.0254 13.4614 59.9702 13.563C59.9222 13.6513 59.8369 13.7133 59.7381 13.7316C59.6245 13.7527 59.4708 13.6719 59.1634 13.5102L56.2483 11.9772C56.1575 11.9294 56.112 11.9055 56.0642 11.8961C56.0218 11.8878 55.9783 11.8878 55.9359 11.8961C55.8881 11.9055 55.8426 11.9294 55.7518 11.9772L52.8367 13.5102C52.5293 13.6719 52.3756 13.7527 52.262 13.7316C52.1632 13.7133 52.0779 13.6513 52.0299 13.563C51.9747 13.4614 52.0041 13.2903 52.0628 12.948L52.6193 9.70312C52.6366 9.60196 52.6453 9.55137 52.6395 9.50296C52.6343 9.4601 52.6208 9.41866 52.5998 9.38093C52.5761 9.33833 52.5393 9.30252 52.4658 9.2309L50.1071 6.93355C49.8585 6.69141 49.7342 6.57034 49.7191 6.45581C49.7059 6.35616 49.7384 6.25589 49.8075 6.18292C49.887 6.09905 50.0587 6.07395 50.4021 6.02376L53.6629 5.54714C53.7643 5.53232 53.815 5.52491 53.8592 5.50437C53.8983 5.48619 53.9335 5.4606 53.9628 5.42901C53.996 5.39333 54.0187 5.34738 54.064 5.25548L55.5218 2.30217Z" fill="#FBAD38" />
	<path d="M71.5218 2.30217C71.6755 1.99088 71.7523 1.83523 71.8566 1.7855C71.9473 1.74224 72.0528 1.74224 72.1435 1.7855C72.2478 1.83523 72.3246 1.99088 72.4783 2.30217L73.9361 5.25548C73.9814 5.34738 74.0041 5.39333 74.0373 5.42901C74.0666 5.4606 74.1018 5.48619 74.1409 5.50437C74.1851 5.52491 74.2358 5.53232 74.3372 5.54714L77.598 6.02376C77.9414 6.07395 78.1131 6.09905 78.1926 6.18292C78.2617 6.25589 78.2942 6.35616 78.281 6.45581C78.2659 6.57035 78.1416 6.69141 77.893 6.93355L75.5343 9.23091C75.4608 9.30252 75.424 9.33833 75.4003 9.38093C75.3793 9.41866 75.3658 9.4601 75.3607 9.50296C75.3548 9.55137 75.3635 9.60196 75.3808 9.70312L75.9373 12.948C75.996 13.2903 76.0254 13.4614 75.9702 13.563C75.9222 13.6513 75.8369 13.7133 75.7381 13.7316C75.6245 13.7527 75.4708 13.6719 75.1634 13.5102L72.2483 11.9772C72.1575 11.9294 72.112 11.9055 72.0642 11.8961C72.0218 11.8878 71.9783 11.8878 71.9359 11.8961C71.8881 11.9055 71.8426 11.9294 71.7518 11.9772L68.8367 13.5102C68.5293 13.6719 68.3756 13.7527 68.262 13.7316C68.1632 13.7133 68.0779 13.6513 68.0299 13.563C67.9747 13.4614 68.0041 13.2903 68.0628 12.948L68.6193 9.70312C68.6366 9.60196 68.6453 9.55137 68.6395 9.50296C68.6343 9.4601 68.6208 9.41866 68.5998 9.38093C68.5761 9.33833 68.5393 9.30252 68.4658 9.2309L66.1071 6.93355C65.8585 6.69141 65.7342 6.57035 65.7191 6.45581C65.7059 6.35616 65.7384 6.25589 65.8075 6.18292C65.887 6.09905 66.0587 6.07395 66.4021 6.02376L69.6629 5.54714C69.7643 5.53232 69.815 5.52491 69.8592 5.50437C69.8983 5.48619 69.9335 5.4606 69.9628 5.42901C69.996 5.39333 70.0187 5.34738 70.064 5.25548L71.5218 2.30217Z" stroke="#FBAD38" stroke-linecap="round" stroke-linejoin="round" />
</svg>